<svg xmlns="http://www.w3.org/2000/svg" xmlns:xlink="http://www.w3.org/1999/xlink" width="24px" height="24px" viewBox="0 0 24 24" fill="none">
                      <path d="M9.50943 16.6978L2.24528 9.18132L1 11.478L7.22642 17.7418L9.50943 16.6978Z" fill="#cfc8be" />
                      <path d="M6.18868 6.67582L4.9434 5.42308L7.01887 3.33516L8.26415 4.58791L6.18868 6.67582Z" fill="#cfc8be" />
                      <path d="M9.30189 14.6099L4.11321 9.39011L4.9434 8.34615H6.18868L9.92453 4.7967V3.54396L10.9623 2.5L15.9434 3.12637L16.3585 7.92857L15.5283 8.76374L14.0755 8.97253L13.2453 10.0165L14.6981 11.2692L15.5283 10.4341L16.9811 11.0604L12.8302 15.2363L12 13.7747L12.8302 12.9396L11.3774 11.478L10.3396 12.7308V13.9835L9.30189 14.6099Z" fill="#cfc8be" />
                      <path d="M20.9245 21.5L14.9057 15.0275L16.566 13.3571L23 19.4121L20.9245 21.5Z" fill="#cfc8be" />
                    </svg>